<svg width="130" height="130" viewBox="0 0 130 130" fill="none" xmlns="http://www.w3.org/2000/svg">
<path d="M30.2397 49.5703C-9.39011 62.5807 0.0534778 120.593 41.8012 120.593H74.3679C84.8454 120.593 94.824 116.163 101.801 108.417L115.468 93.238C140.529 65.4064 112.202 22.662 76.4718 34.3916L30.2397 49.5703Z" fill="#FAE041"/>
<path d="M26 15C26 12.2386 28.2386 10 31 10H107C109.761 10 112 12.2386 112 15V94C112 96.7614 109.761 99 107 99H31C28.2386 99 26 96.7614 26 94V15Z" fill="white"/>
<rect x="31.5999" y="16.3984" width="74" height="75.2" fill="white"/>
<path d="M75.6487 51.4238L63.6487 59.7238L62.2487 45.7238L62.1487 43.0238L64.4487 42.9238L75.6487 51.4238Z" fill="#202124"/>
<path d="M63.2487 45.1238L62.2487 45.7238M62.2487 45.7238L63.6487 59.7238L75.6487 51.4238L64.4487 42.9238L62.1487 43.0238L62.2487 45.7238Z" stroke="black" stroke-width="0.2"/>
<path d="M33.4307 45.1706C33.3984 45.696 33.3469 46.2591 33.3541 46.7839C33.5281 56.605 33.3262 66.3563 33.3023 76.1426C33.3007 80.342 33.2792 84.5416 33.2583 88.7788C33.2484 89.4913 33.2389 90.2413 33.1697 90.9546C33.0662 92.0434 32.5827 92.7624 32.0889 92.7317C31.5753 92.7012 31.1299 91.8824 31.0356 90.7589C30.9651 89.935 30.9736 89.11 30.9623 88.2853C30.8282 78.5011 30.9507 68.7135 31.0535 58.9261C31.0921 54.5387 31.0912 50.1519 30.9325 45.7673C30.9486 45.5046 31.0042 45.2414 31.0006 44.979C30.9105 39.8435 30.8994 34.7069 30.9677 29.6068C30.9784 27.507 30.9693 25.4074 30.9806 23.3451C30.9974 21.6951 30.9951 20.0829 31.0317 18.4326C31.0442 17.9075 31.076 17.3447 31.1477 16.8188C31.2543 15.955 31.5239 15.4638 31.8791 15.459C32.3329 15.4528 32.5571 15.9746 32.7445 16.6844C32.9941 17.6184 33.0474 18.63 33.081 19.6419C33.1787 22.4526 33.2177 25.3016 33.2957 28.1126C33.307 28.9373 33.338 29.7618 33.3686 30.5487C33.1783 35.3881 33.245 40.2614 33.4307 45.1706Z" fill="#202124"/>
<path d="M45.2339 48.7973C45.1975 49.0202 45.1415 49.2593 45.1446 49.4817C45.241 53.6428 44.9622 57.7773 44.8611 61.9252C44.8263 63.705 44.7717 65.4851 44.7174 67.2811C44.7018 67.5832 44.6864 67.9012 44.6116 68.204C44.4995 68.6663 44.0104 68.9749 43.5169 68.9657C43.0036 68.9569 42.5647 68.6134 42.4793 68.1379C42.4153 67.7893 42.4302 67.4396 42.4254 67.0901C42.3687 62.9443 42.5684 58.795 42.7484 54.646C42.8216 52.7862 42.8553 50.927 42.7312 49.0699C42.7494 48.9584 42.8071 48.8464 42.8056 48.7352C42.756 46.5594 42.7854 44.3824 42.8939 42.2203C42.9212 41.3302 42.9288 40.4404 42.9563 39.5663C42.9862 38.8668 42.9965 38.1835 43.0462 37.4838C43.0628 37.2612 43.099 37.0223 43.1749 36.7989C43.2883 36.4319 43.5617 36.2217 43.9169 36.2168C44.3707 36.2106 44.5908 36.43 44.7725 36.7293C45.0148 37.1232 45.0601 37.5515 45.0857 37.9801C45.1612 39.1706 45.1778 40.3778 45.2335 41.5686C45.2383 41.9181 45.2628 42.2673 45.2871 42.6005C45.0587 44.6531 45.087 46.7181 45.2339 48.7973Z" fill="#202124"/>
<path d="M93.8306 49.1673C93.7941 49.3861 93.7381 49.6208 93.7411 49.8392C93.8365 53.9244 93.5566 57.9836 93.4545 62.056C93.4193 63.8034 93.3643 65.5511 93.3095 67.3143C93.2938 67.6109 93.2783 67.9231 93.2035 68.2204C93.0913 68.6743 92.602 68.9774 92.1085 68.9685C91.5953 68.96 91.1565 68.6228 91.0712 68.1561C91.0073 67.8138 91.0223 67.4704 91.0176 67.1274C90.9618 63.0572 91.1626 58.9835 91.3436 54.91C91.4173 53.0841 91.4515 51.2587 91.3279 49.4355C91.3461 49.3261 91.4038 49.2161 91.4023 49.1069C91.3533 46.9707 91.3832 44.8335 91.4923 42.7107C91.5198 41.8369 91.5276 40.9633 91.5553 40.1051C91.5854 39.4183 91.5959 38.7475 91.6457 38.0605C91.6624 37.8419 91.6987 37.6075 91.7746 37.3881C91.8881 37.0278 92.1616 36.8213 92.5168 36.8164C92.9706 36.8102 93.1906 37.0255 93.3723 37.3194C93.6144 37.706 93.6596 38.1265 93.6851 38.5473C93.7603 39.7161 93.7766 40.9013 93.8321 42.0703C93.8368 42.4134 93.8612 42.7562 93.8854 43.0835C93.6564 45.0987 93.6842 47.126 93.8306 49.1673Z" fill="#202124"/>
<path d="M106.854 44.2682C106.822 44.7748 106.77 45.3179 106.777 45.824C106.946 55.2947 106.739 64.6982 106.711 74.1354C106.707 78.185 106.683 82.2348 106.66 86.3208C106.65 87.008 106.64 87.7312 106.571 88.4191C106.467 89.4691 105.983 90.1627 105.489 90.1333C104.976 90.1042 104.531 89.3149 104.437 88.2314C104.367 87.437 104.376 86.6414 104.365 85.8461C104.235 76.411 104.363 66.9724 104.47 57.5341C104.511 53.3033 104.512 49.0729 104.356 44.8448C104.372 44.5915 104.428 44.3376 104.424 44.0846C104.337 39.1323 104.328 34.179 104.399 29.2607C104.41 27.2358 104.402 25.2112 104.415 23.2224C104.432 21.6313 104.431 20.0766 104.468 18.4852C104.481 17.9788 104.513 17.436 104.585 16.9288C104.692 16.0958 104.962 15.622 105.317 15.6172C105.771 15.611 105.995 16.1141 106.182 16.7985C106.431 17.699 106.484 18.6745 106.517 19.6503C106.613 22.3607 106.651 25.1081 106.728 27.8187C106.738 28.614 106.769 29.4091 106.799 30.1679C106.607 34.8348 106.671 39.5342 106.854 44.2682Z" fill="#202124"/>
<path d="M97.5698 12.8793C99.255 13.1409 101.048 12.9799 102.769 13.0604C103.558 13.1006 104.346 13.1006 105.099 13.2012C106.211 13.3421 106.27 14.0556 106.162 14.5988C106.055 15.1622 105.888 15.314 104.813 15.4146C104.203 15.4749 103.593 15.4749 102.984 15.4749C100.976 15.495 98.9681 15.495 96.9602 15.5152C93.7691 15.4749 90.578 15.4146 87.351 15.3743C85.8809 15.3542 84.4109 15.4146 82.9408 15.4347C78.2796 15.4347 73.6542 15.3944 68.993 15.4146C60.7463 15.4548 52.4996 15.5554 44.2887 15.5957C40.5956 15.6158 36.9383 15.5353 33.2452 15.495C32.564 15.495 31.7393 15.5554 31.3449 15.1731C30.8429 14.6902 31.7752 14.3884 32.1337 14.0463C32.321 13.8572 31.4866 13.544 31.7997 13.4427C32.0861 13.35 33.5572 13.4181 33.8997 13.3988C35.2981 13.3183 36.6515 13.2415 38.0499 13.2415C48.1252 13.1208 58.2006 13.0202 68.2759 12.9196C72.471 12.8793 76.702 12.8994 80.897 12.8994C81.5783 12.8994 82.2954 12.9598 82.9766 12.7988C86.6339 12.8391 90.2553 12.8994 93.9125 12.9196C95.1316 12.9196 96.3507 13.0202 97.5698 12.8793Z" fill="#202124"/>
<path d="M97.57 14.8793C99.2552 15.1409 101.048 14.9799 102.769 15.0604C103.558 15.1006 104.347 15.1006 105.1 15.2012C106.211 15.3421 106.27 16.0556 106.162 16.5988C106.055 17.1622 105.888 17.314 104.813 17.4146C104.203 17.4749 103.594 17.4749 102.984 17.4749C100.976 17.495 98.9684 17.495 96.9605 17.5152C93.7694 17.4749 90.5782 17.4146 87.3512 17.3743C85.8812 17.3542 84.4111 17.4146 82.941 17.4347C78.2798 17.4347 73.6545 17.3944 68.9933 17.4146C60.7466 17.4548 52.4998 17.5554 44.2889 17.5957C40.5958 17.6158 36.9386 17.5353 33.2455 17.495C32.5642 17.495 31.7396 17.5554 31.3451 17.1731C30.8432 16.6902 31.7754 16.3884 32.134 16.0463C32.3213 15.8572 31.4868 15.544 31.8 15.4427C32.0863 15.35 33.5574 15.4181 33.9 15.3988C35.2983 15.3183 36.6517 15.2415 38.0501 15.2415C48.1255 15.1208 58.2008 15.0202 68.2762 14.9196C72.4713 14.8793 76.7022 14.8994 80.8973 14.8994C81.5785 14.8994 82.2956 14.9598 82.9769 14.7988C86.6341 14.8391 90.2555 14.8994 93.9128 14.9196C95.1319 14.9196 96.3509 15.0202 97.57 14.8793Z" fill="#202124"/>
<path d="M97.3843 26.2797C98.9886 26.5413 100.695 26.3803 102.334 26.4608C103.085 26.501 103.836 26.501 104.552 26.6016C105.611 26.7425 105.667 27.456 105.564 27.9992C105.462 28.5626 105.303 28.7143 104.279 28.815C103.699 28.8753 103.119 28.8753 102.539 28.8753C100.627 28.8954 98.7155 28.8954 96.804 28.9156C93.766 28.8753 90.7281 28.815 87.656 28.7747C86.2565 28.7546 84.857 28.815 83.4575 28.8351C79.02 28.8351 74.6167 28.7948 70.1792 28.815C62.3283 28.8552 54.4774 28.9558 46.6607 28.996C43.1448 29.0162 39.6631 28.9357 36.1473 28.8954C35.4987 28.8954 34.7137 28.9558 34.3382 28.5735C33.8603 28.0906 34.7478 27.7888 35.0891 27.4467C35.4305 27.0845 36.0449 26.8833 36.7276 26.8431C38.0588 26.7626 39.3901 26.6419 40.7213 26.6419C50.313 26.5212 59.9048 26.4206 69.4965 26.3199C73.4902 26.2797 77.5181 26.2998 81.5118 26.2998C82.1604 26.2998 82.843 26.3602 83.4916 26.1992C86.9733 26.2395 90.4209 26.2998 93.9026 26.3199C95.0631 26.3199 96.2237 26.4206 97.3843 26.2797Z" fill="#202124"/>
<path d="M88.0236 34.8793C89.1515 35.1409 90.3515 34.9799 91.5034 35.0604C92.0314 35.1006 92.5594 35.1006 93.0634 35.2012C93.8074 35.3421 93.8467 36.0556 93.7747 36.5988C93.7027 37.1622 93.5914 37.314 92.8714 37.4146C92.4634 37.4749 92.0554 37.4749 91.6474 37.4749C90.3035 37.495 88.9595 37.495 87.6156 37.5152C85.4796 37.4749 83.3437 37.4146 81.1838 37.3743C80.1998 37.3542 79.2159 37.4146 78.2319 37.4347C75.112 37.4347 72.0161 37.3944 68.8962 37.4146C63.3764 37.4548 57.8566 37.5554 52.3607 37.5957C49.8888 37.6158 47.4409 37.5353 44.969 37.495C44.513 37.495 43.961 37.5554 43.697 37.1731C43.361 36.6902 43.985 36.3884 44.225 36.0463C44.465 35.6842 44.897 35.4829 45.377 35.4427C46.313 35.3622 47.2489 35.2415 48.1849 35.2415C54.9287 35.1208 61.6724 35.0202 68.4162 34.9196C71.2241 34.8793 74.056 34.8994 76.8639 34.8994C77.3199 34.8994 77.7999 34.9598 78.2559 34.7988C80.7038 34.8391 83.1277 34.8994 85.5756 34.9196C86.3916 34.9196 87.2076 35.0202 88.0236 34.8793Z" fill="#202124"/>
<path d="M64.8074 59.2097C64.5493 59.6052 64.7141 60.022 64.6372 60.4243C64.5986 60.6087 64.6003 60.7927 64.5012 60.9693C64.3627 61.2299 63.6494 61.25 63.1059 61.2298C62.5424 61.2098 62.3903 61.1723 62.2874 60.9223C62.2258 60.7806 62.2245 60.6384 62.2232 60.4962C62.1989 60.0279 62.1947 59.5595 62.1703 59.0912C62.2039 58.3463 62.2575 57.6013 62.291 56.8481C62.308 56.5049 62.2446 56.1625 62.2214 55.8197C62.2116 54.7322 62.2421 53.6528 62.2122 52.5655C62.1547 50.6418 62.0368 48.7187 61.9793 46.8035C61.9514 45.942 62.0242 45.0881 62.0567 44.2261C62.0553 44.0672 61.9932 43.8753 62.3747 43.7798C62.8565 43.6584 63.1602 43.8732 63.503 43.9537C63.866 44.0341 64.0685 44.1829 64.1103 44.3498C64.1937 44.6754 64.3173 45.0005 64.3203 45.3268C64.4621 47.6763 64.5839 50.026 64.7056 52.3757C64.7547 53.3541 64.7434 54.3413 64.7522 55.3201C64.7537 55.479 64.6948 55.6469 64.8572 55.8043C64.8246 56.658 64.7719 57.5034 64.7594 58.3568C64.762 58.6412 64.664 58.9266 64.8074 59.2097Z" fill="#202124"/>
<path d="M65.9299 60.4308C65.5044 60.4133 65.3071 60.7521 64.9811 60.8861C64.8297 60.9448 64.7017 61.0362 64.521 61.0417C64.2588 61.0559 63.8345 60.4822 63.5362 60.0277C63.2261 59.5568 63.1649 59.414 63.281 59.2075C63.3448 59.0877 63.4437 59.0171 63.5426 58.9464C63.8567 58.6973 64.1825 58.4645 64.4966 58.2154C65.0377 57.8782 65.5906 57.5574 66.1376 57.2161C66.3878 57.0621 66.5912 56.8425 66.8181 56.6558C67.5744 56.1154 68.3483 55.612 69.0929 55.0553C70.4076 54.0666 71.6872 53.0288 72.996 52.0443C73.5835 51.5998 74.2237 51.2413 74.8464 50.846C74.9569 50.767 75.0556 50.6223 75.3418 50.8877C75.704 51.2224 75.7282 51.576 75.8689 51.8959C76.0212 52.2322 76.0335 52.4707 75.9405 52.5866C75.7604 52.8142 75.6037 53.0745 75.3768 53.2366C73.8122 54.5028 72.2359 55.7526 70.6596 57.0023C70.0023 57.5214 69.3041 57.9954 68.6235 58.4817C68.5129 58.5607 68.3615 58.5947 68.3445 58.8047C67.7277 59.1959 67.105 59.5665 66.4999 59.9741C66.3021 60.1154 66.0458 60.1749 65.9299 60.4308Z" fill="#202124"/>
<path d="M75.477 50.0372C75.63 50.4716 76.0509 50.5784 76.3168 50.871C76.4367 51.0078 76.5803 51.1121 76.6582 51.293C76.7777 51.5539 76.3692 52.1389 76.0303 52.5643C75.6797 53.0059 75.5602 53.1067 75.3053 53.0459C75.1589 53.0142 75.048 52.9336 74.9371 52.853C74.5598 52.6039 74.1944 52.3385 73.8171 52.0894C73.26 51.635 72.7147 51.1644 72.1511 50.7052C71.8954 50.4946 71.5923 50.3492 71.313 50.1711C70.4647 49.555 69.6465 48.9111 68.7864 48.3112C67.2619 47.2537 65.7019 46.2451 64.1839 45.1923C63.4999 44.7204 62.8816 44.1719 62.2332 43.6511C62.1092 43.5611 61.9236 43.5009 62.0765 43.1395C62.2689 42.6824 62.6159 42.5614 62.8822 42.3321C63.1603 42.0864 63.396 42.0089 63.5501 42.0711C63.8519 42.1909 64.1774 42.278 64.4319 42.4628C66.3365 43.6969 68.2293 44.9473 70.1221 46.1977C70.9092 46.7196 71.6674 47.2952 72.4309 47.8497C72.5548 47.9397 72.6499 48.0834 72.8685 48.0432C73.5104 48.5591 74.134 49.0867 74.7878 49.5864C75.0097 49.7475 75.1724 49.9901 75.477 50.0372Z" fill="#202124"/>
<path d="M84.3528 66.2797C85.3774 66.5413 86.4674 66.3803 87.5138 66.4608C87.9934 66.501 88.473 66.501 88.9308 66.6016C89.6066 66.7425 89.6423 67.456 89.5769 67.9992C89.5115 68.5626 89.4104 68.7143 88.7564 68.815C88.3858 68.8753 88.0152 68.8753 87.6446 68.8753C86.4238 68.8954 85.203 68.8954 83.9822 68.9156C82.042 68.8753 80.1017 68.815 78.1397 68.7747C77.2459 68.7546 76.3521 68.815 75.4583 68.8351C72.6243 68.8351 69.8121 68.7948 66.9781 68.815C61.9641 68.8552 56.9501 68.9558 51.9579 68.996C49.7125 69.0162 47.4888 68.9357 45.2434 68.8954C44.8292 68.8954 44.3278 68.9558 44.088 68.5735C43.7828 68.0906 44.3496 67.7888 44.5676 67.4467C44.7856 67.0845 45.178 66.8833 45.614 66.8431C46.4642 66.7626 47.3144 66.6419 48.1646 66.6419C54.2905 66.5212 60.4163 66.4206 66.5421 66.3199C69.0927 66.2797 71.6651 66.2998 74.2157 66.2998C74.6299 66.2998 75.0659 66.3602 75.4801 66.1992C77.7037 66.2395 79.9055 66.2998 82.1292 66.3199C82.8704 66.3199 83.6116 66.4206 84.3528 66.2797Z" fill="#202124"/>
<path d="M98.2646 90.3257C99.9962 90.7367 101.838 90.4838 103.607 90.6103C104.417 90.6735 105.228 90.6735 106.002 90.8316C107.144 91.0529 107.697 91.7802 107.586 92.6339C107.476 93.5192 106.812 94.1516 105.707 94.3097C105.081 94.4045 104.454 94.4045 103.828 94.4045C101.765 94.4361 99.7015 94.4361 97.6382 94.4678C94.3591 94.4045 91.08 94.3097 87.7641 94.2464C86.2535 94.2148 84.7429 94.3097 83.2323 94.3413C78.4426 94.3413 73.6897 94.278 68.9 94.3097C60.426 94.3729 51.9519 94.531 43.5146 94.5942C39.7197 94.6258 35.9617 94.4994 32.1667 94.4361C31.4667 94.4361 31.769 94.5714 31.3637 93.9706C31.3637 93.9706 30.9953 92.151 31.3637 91.6135C31.7322 91.0444 32.0562 91.2743 32.7931 91.211C34.23 91.0845 35.6669 90.8948 37.1038 90.8948C47.4569 90.7051 57.81 90.547 68.1632 90.3889C72.4739 90.3257 76.8215 90.3573 81.1322 90.3573C81.8322 90.3573 82.5691 90.4522 83.2691 90.1992C87.0272 90.2625 90.7484 90.3573 94.5065 90.3889C95.7592 90.3889 97.0119 90.547 98.2646 90.3257Z" fill="#202124"/>
<path d="M98.2646 91.7261C99.9962 92.1371 101.838 91.8842 103.607 92.0107C104.417 92.0739 105.228 92.0739 106.002 92.232C107.144 92.4533 107.71 91.7459 107.6 92.5996C107.489 93.4849 106.812 95.552 105.707 95.71C105.081 95.8049 104.454 95.8049 103.828 95.8049C101.765 95.8365 99.7015 95.8365 97.6382 95.8681C94.3591 95.8049 91.08 95.71 87.7641 95.6468C86.2535 95.6152 84.7429 95.71 83.2323 95.7417C78.4426 95.7417 73.6897 95.6784 68.9 95.71C60.426 95.7733 51.9519 95.9314 43.5146 95.9946C39.7197 96.0262 35.9617 95.8998 32.1667 95.8365C31.4667 95.8365 31.769 95.9718 31.3637 95.371C31.3637 95.371 30.9953 93.5514 31.3637 93.0139C31.7322 92.4448 32.0562 92.6746 32.7931 92.6114C34.23 92.4849 35.6669 92.2952 37.1038 92.2952C47.4569 92.1055 57.81 91.9474 68.1632 91.7893C72.4739 91.7261 76.8215 91.7577 81.1322 91.7577C81.8322 91.7577 82.5691 91.8526 83.2691 91.5996C87.0272 91.6628 90.7484 91.7577 94.5065 91.7893C95.7592 91.7893 97.0119 91.9474 98.2646 91.7261Z" fill="#202124"/>
<path d="M71.8597 80.6664C73.2143 80.8311 74.6023 80.7678 75.9736 80.8185C76.2913 80.8311 76.6258 80.8185 76.9435 80.8565C77.3449 80.8945 77.5623 81.0592 77.5957 81.3C77.6291 81.6167 77.4619 81.8448 77.1275 81.9842C76.8599 82.0856 76.5923 82.1109 76.2913 82.1109C75.2712 82.1109 74.2678 82.1236 73.2477 82.1236C72.7962 82.1236 72.3614 82.1236 71.9099 82.1236C69.7694 82.0476 67.6121 82.1109 65.4716 82.1996C63.03 82.1616 60.5718 82.0982 58.1302 82.0982C53.9997 82.1109 49.8858 82.0349 45.772 81.8955C45.4543 81.8828 45.1198 81.8702 44.8021 81.8068C44.4509 81.7435 44.3171 81.5027 44.4509 81.2366C44.5679 80.9832 44.7853 80.7931 45.1198 80.7424C45.5546 80.6664 46.0061 80.6031 46.4576 80.6031C47.762 80.5904 49.0664 80.6157 50.3708 80.6284C55.1034 80.6664 59.836 80.6918 64.5853 80.7171C64.8696 80.7171 65.1539 80.7678 65.4214 80.6537C67.562 80.7678 69.7192 80.6537 71.8597 80.6664Z" fill="#202124"/>
<path d="M89.4978 74.8656C89.9466 75.0304 90.4065 74.967 90.8608 75.0177C90.9661 75.0304 91.0769 75.0177 91.1822 75.0557C91.3152 75.0937 91.3872 75.2584 91.3983 75.4992C91.4093 75.816 91.3539 76.044 91.2431 76.1834C91.1545 76.2848 91.0658 76.3101 90.9661 76.3101C90.6281 76.3101 90.2957 76.3228 89.9577 76.3228C89.8081 76.3228 89.664 76.3228 89.5144 76.3228C88.8052 76.2468 88.0905 76.3101 87.3812 76.3988C86.5723 76.3608 85.7578 76.2975 84.9489 76.2975C83.5803 76.3101 82.2173 76.2341 80.8543 76.0947C80.749 76.0821 80.6382 76.0694 80.5329 76.006C80.4165 75.9427 80.3722 75.7019 80.4165 75.4358C80.4553 75.1824 80.5274 74.9923 80.6382 74.9417C80.7822 74.8656 80.9318 74.8023 81.0814 74.8023C81.5136 74.7896 81.9458 74.815 82.378 74.8276C83.946 74.8656 85.514 74.891 87.0876 74.9163C87.1818 74.9163 87.276 74.967 87.3646 74.853C88.0738 74.967 88.7886 74.853 89.4978 74.8656Z" fill="#202124"/>
<path d="M89.2213 80.6664C89.7354 80.8311 90.2622 80.7678 90.7826 80.8185C90.9032 80.8311 91.0301 80.8185 91.1507 80.8565C91.303 80.8945 91.3855 81.0592 91.3982 81.3C91.4109 81.6167 91.3474 81.8448 91.2205 81.9842C91.119 82.0856 91.0174 82.1109 90.9032 82.1109C90.516 82.1109 90.1352 82.1236 89.7481 82.1236C89.5767 82.1236 89.4117 82.1236 89.2404 82.1236C88.428 82.0476 87.6093 82.1109 86.7969 82.1996C85.8703 82.1616 84.9373 82.0982 84.0107 82.0982C82.4431 82.1109 80.8818 82.0349 79.3205 81.8955C79.2 81.8828 79.073 81.8702 78.9524 81.8068C78.8192 81.7435 78.7684 81.5027 78.8192 81.2366C78.8636 80.9832 78.9461 80.7931 79.073 80.7424C79.238 80.6664 79.4094 80.6031 79.5808 80.6031C80.0758 80.5904 80.5708 80.6157 81.0659 80.6284C82.862 80.6664 84.6581 80.6918 86.4605 80.7171C86.5684 80.7171 86.6763 80.7678 86.7779 80.6537C87.5902 80.7678 88.4089 80.6537 89.2213 80.6664Z" fill="#E5CF4A"/>
<path d="M75.0036 74.8656C75.8522 75.0304 76.7218 74.967 77.5809 75.0177C77.78 75.0304 77.9895 75.0177 78.1886 75.0557C78.44 75.0937 78.5762 75.2584 78.5972 75.4992C78.6181 75.816 78.5134 76.044 78.3038 76.1834C78.1362 76.2848 77.9686 76.3101 77.78 76.3101C77.1409 76.3101 76.5122 76.3228 75.8731 76.3228C75.5903 76.3228 75.3179 76.3228 75.035 76.3228C73.6939 76.2468 72.3424 76.3101 71.0013 76.3988C69.4717 76.3608 67.9316 76.2975 66.4019 76.2975C63.8141 76.3101 61.2368 76.2341 58.6594 76.0947C58.4604 76.0821 58.2508 76.0694 58.0518 76.006C57.8317 75.9427 57.7479 75.7019 57.8317 75.4358C57.9051 75.1824 58.0413 74.9923 58.2508 74.9417C58.5232 74.8656 58.8061 74.8023 59.089 74.8023C59.9062 74.7896 60.7234 74.815 61.5406 74.8276C64.5056 74.8656 67.4706 74.891 70.4461 74.9163C70.6242 74.9163 70.8023 74.967 70.9699 74.853C72.311 74.967 73.6625 74.853 75.0036 74.8656Z" fill="#202124"/>
<path d="M53.9943 74.8656C54.4676 75.0304 54.9525 74.967 55.4317 75.0177C55.5427 75.0304 55.6595 75.0177 55.7706 75.0557C55.9108 75.0937 55.9867 75.2584 55.9984 75.4992C56.0101 75.816 55.9517 76.044 55.8348 76.1834C55.7413 76.2848 55.6479 76.3101 55.5427 76.3101C55.1863 76.3101 54.8357 76.3228 54.4793 76.3228C54.3215 76.3228 54.1696 76.3228 54.0118 76.3228C53.2639 76.2468 52.5102 76.3101 51.7623 76.3988C50.9092 76.3608 50.0503 76.2975 49.1972 76.2975C47.754 76.3101 46.3167 76.2341 44.8793 76.0947C44.7683 76.0821 44.6514 76.0694 44.5404 76.006C44.4177 75.9427 44.371 75.7019 44.4177 75.4358C44.4586 75.1824 44.5346 74.9923 44.6514 74.9417C44.8033 74.8656 44.9611 74.8023 45.1189 74.8023C45.5746 74.7896 46.0304 74.815 46.4861 74.8276C48.1397 74.8656 49.7932 74.891 51.4526 74.9163C51.552 74.9163 51.6513 74.967 51.7448 74.853C52.4927 74.967 53.2464 74.853 53.9943 74.8656Z" fill="#20BEFF"/>
<path d="M40.756 23.5577C40.8371 23.4604 40.829 23.355 40.829 23.2495C40.829 22.406 40.829 21.5624 40.829 20.7108C40.829 20.4918 40.7885 20.4512 40.5857 20.435C39.6367 20.3782 38.6877 20.3296 37.7387 20.2809C37.4954 20.2647 37.4468 20.3133 37.4305 20.5648C37.4062 21.0109 37.4143 21.4489 37.3819 21.895C37.3413 22.4627 37.2845 23.0305 37.2278 23.5983C37.2115 23.7199 37.1791 23.8497 37.1548 23.9714C37.1142 24.1255 37.0412 24.2472 36.8628 24.2553C36.7249 24.2553 36.6275 24.1417 36.6113 23.9471C36.6032 23.8173 36.5951 23.6956 36.6032 23.5658C36.6113 23.2252 36.6194 22.8926 36.6438 22.552C36.6762 21.9193 36.7168 21.2867 36.7492 20.654C36.7573 20.4675 36.7654 20.2728 36.7979 20.0862C36.8465 19.7861 36.9601 19.6807 37.2683 19.6726C38.1119 19.6482 38.9554 19.5428 39.7989 19.6401C40.1153 19.6726 40.4316 19.6645 40.7479 19.6726C40.8777 19.6726 40.9994 19.6645 41.1291 19.6807C41.4455 19.7294 41.6077 19.9159 41.5996 20.2485C41.5752 21.0109 41.5509 21.7652 41.5185 22.5276C41.5022 22.9251 41.4779 23.3306 41.4455 23.7281C41.413 24.0849 41.3238 24.166 40.9831 24.2228C40.9588 24.2228 40.9426 24.2309 40.9182 24.2309C40.0341 24.2796 39.1419 24.3283 38.2578 24.3688C38.1119 24.3769 37.9577 24.3607 37.8199 24.3364C37.6495 24.2958 37.5198 24.1093 37.536 23.9633C37.5522 23.8092 37.6982 23.6632 37.8685 23.6307C37.9091 23.6226 37.9496 23.6145 37.9983 23.6226C38.8662 23.6551 39.7259 23.4766 40.5938 23.5821C40.6344 23.5821 40.6992 23.5658 40.756 23.5577Z" fill="#202124"/>
<path d="M47.756 23.5577C47.8371 23.4604 47.829 23.355 47.829 23.2495C47.829 22.406 47.829 21.5624 47.829 20.7108C47.829 20.4918 47.7885 20.4512 47.5857 20.435C46.6367 20.3782 45.6877 20.3296 44.7387 20.2809C44.4954 20.2647 44.4468 20.3133 44.4305 20.5648C44.4062 21.0109 44.4143 21.4489 44.3819 21.895C44.3413 22.4627 44.2845 23.0305 44.2278 23.5983C44.2115 23.7199 44.1791 23.8497 44.1548 23.9714C44.1142 24.1255 44.0412 24.2472 43.8628 24.2553C43.7249 24.2553 43.6275 24.1417 43.6113 23.9471C43.6032 23.8173 43.5951 23.6956 43.6032 23.5658C43.6113 23.2252 43.6194 22.8926 43.6438 22.552C43.6762 21.9193 43.7168 21.2867 43.7492 20.654C43.7573 20.4675 43.7654 20.2728 43.7979 20.0862C43.8465 19.7861 43.9601 19.6807 44.2683 19.6726C45.1119 19.6482 45.9554 19.5428 46.7989 19.6401C47.1153 19.6726 47.4316 19.6645 47.7479 19.6726C47.8777 19.6726 47.9994 19.6645 48.1291 19.6807C48.4455 19.7294 48.6077 19.9159 48.5996 20.2485C48.5752 21.0109 48.5509 21.7652 48.5185 22.5276C48.5022 22.9251 48.4779 23.3306 48.4455 23.7281C48.413 24.0849 48.3238 24.166 47.9831 24.2228C47.9588 24.2228 47.9426 24.2309 47.9182 24.2309C47.0341 24.2796 46.1419 24.3283 45.2578 24.3688C45.1119 24.3769 44.9577 24.3607 44.8199 24.3364C44.6495 24.2958 44.5198 24.1093 44.536 23.9633C44.5522 23.8092 44.6982 23.6632 44.8685 23.6307C44.9091 23.6226 44.9496 23.6145 44.9983 23.6226C45.8662 23.6551 46.7259 23.4766 47.5938 23.5821C47.6344 23.5821 47.6992 23.5658 47.756 23.5577Z" fill="#202124"/>
<path d="M54.956 23.5577C55.0371 23.4604 55.029 23.355 55.029 23.2495C55.029 22.406 55.029 21.5624 55.029 20.7108C55.029 20.4918 54.9884 20.4512 54.7856 20.435C53.8367 20.3782 52.8877 20.3296 51.9387 20.2809C51.6954 20.2647 51.6467 20.3133 51.6305 20.5648C51.6061 21.0109 51.6143 21.4489 51.5818 21.895C51.5413 22.4627 51.4845 23.0305 51.4277 23.5983C51.4115 23.7199 51.379 23.8497 51.3547 23.9714C51.3142 24.1255 51.2412 24.2472 51.0627 24.2553C50.9248 24.2553 50.8275 24.1417 50.8113 23.9471C50.8032 23.8173 50.7951 23.6956 50.8032 23.5658C50.8113 23.2252 50.8194 22.8926 50.8437 22.552C50.8762 21.9193 50.9167 21.2867 50.9492 20.654C50.9573 20.4675 50.9654 20.2728 50.9978 20.0862C51.0465 19.7861 51.16 19.6807 51.4683 19.6726C52.3118 19.6482 53.1553 19.5428 53.9989 19.6401C54.3152 19.6726 54.6315 19.6645 54.9479 19.6726C55.0776 19.6726 55.1993 19.6645 55.3291 19.6807C55.6454 19.7294 55.8076 19.9159 55.7995 20.2485C55.7752 21.0109 55.7508 21.7652 55.7184 22.5276C55.7022 22.9251 55.6779 23.3306 55.6454 23.7281C55.613 24.0849 55.5237 24.166 55.1831 24.2228C55.1587 24.2228 55.1425 24.2309 55.1182 24.2309C54.2341 24.2796 53.3419 24.3283 52.4578 24.3688C52.3118 24.3769 52.1577 24.3607 52.0198 24.3364C51.8495 24.2958 51.7197 24.1093 51.7359 23.9633C51.7521 23.8092 51.8981 23.6632 52.0685 23.6307C52.109 23.6226 52.1496 23.6145 52.1982 23.6226C53.0661 23.6551 53.9259 23.4766 54.7938 23.5821C54.8343 23.5821 54.8992 23.5658 54.956 23.5577Z" fill="#202124"/>
<rect x="36.9998" y="20.1992" width="4" height="4" fill="#202124"/>
<rect x="44.2" y="20.1992" width="3.8" height="3.6" fill="#202124"/>
<rect x="51.3999" y="20.1992" width="3.8" height="3.6" fill="#202124"/>
<path d="M108.854 44.2665C108.821 44.7731 108.77 45.3162 108.777 45.8223C108.946 55.2929 108.739 64.6964 108.711 74.1337C108.707 78.1832 108.683 82.2331 108.66 86.3191C108.65 87.0062 108.64 87.7295 108.571 88.4174C108.467 89.4673 106.094 90.1272 105.6 90.0979C105.086 90.0687 106.53 89.3131 106.437 88.2297C106.367 87.4352 106.375 86.6396 106.365 85.8443C106.235 76.4093 106.363 66.9707 106.47 57.5324C106.511 53.3015 106.512 49.0712 106.356 44.843C106.372 44.5897 106.428 44.3359 106.424 44.0828C106.336 39.1306 106.328 34.1772 106.399 29.259C106.41 27.2341 106.402 25.2094 106.415 23.2206C106.432 21.6295 106.431 20.0748 106.468 18.4834C106.481 17.977 104.928 16.005 105 15.4979C105.107 14.6648 105.545 13.4028 105.9 13.3979C106.354 13.3917 107.995 16.1123 108.182 16.7967C108.431 17.6972 108.484 18.6727 108.517 19.6485C108.613 22.3589 108.651 25.1063 108.727 27.817C108.738 28.6123 108.769 29.4073 108.799 30.1662C108.606 34.833 108.671 39.5325 108.854 44.2665Z" fill="#202124"/>
<path d="M31.4686 45.3275C31.4364 45.8528 31.3849 46.4159 31.3921 46.9408C31.5661 56.7619 31.3641 66.5131 31.3403 76.2994C31.3386 80.4988 31.3172 84.6985 31.2963 88.9356C31.2863 89.6481 31.2768 90.3981 31.2077 91.1115C32.2 93.6982 32.2938 96.029 31.8 95.9982C31.2864 95.9678 29.0945 96.2218 29.0002 95.0982C28.9297 94.2743 29.0115 89.2668 29.0002 88.4421C28.8662 78.658 28.9887 68.8703 29.0914 59.0829C29.13 54.6956 29.1291 50.3087 28.9704 45.9241C28.9865 45.6614 29.0421 45.3982 29.0386 45.1358C28.9485 40.0003 28.9373 34.8637 29.0056 29.7636C29.0163 27.6638 29.0073 25.5642 29.0185 23.5019C29.0354 21.8519 29.033 20.2397 29.0696 18.5894C29.0822 18.0644 29.1139 17.5015 29.1857 16.9756C29.2923 16.1118 29.2449 13.7031 29.6 13.6982C30.0539 13.692 32.2127 12.9884 32.4 13.6982C32.6497 14.6322 31.0854 18.7868 31.119 19.7987C31.2167 22.6094 31.2557 25.4584 31.3337 28.2694C31.345 29.0941 31.376 29.9186 31.4065 30.7056C31.2162 35.5449 31.283 40.4183 31.4686 45.3275Z" fill="#202124"/>
</svg>
